<svg xmlns="http://www.w3.org/2000/svg" viewBox="0 0 48 48" fill="none">
	<path
		d="M24 6C16.8 6 11 11.2 9.6 18.2C8.7 22.8 9.2 27.4 11.2 31.4C12.4 33.8 13.8 36.6 15.4 38.4C16.4 39.6 17.6 40.4 19 40.6C20.2 40.8 21.2 40.4 22 39.4C22.6 38.6 23.2 37.2 23.6 35.6C23.8 34.8 24 34.4 24.4 34.4C24.8 34.4 25 34.8 25.2 35.6C25.6 37.2 26.2 38.6 26.8 39.4C27.6 40.4 28.6 40.8 29.8 40.6C31.2 40.4 32.4 39.6 33.4 38.4C35 36.6 36.4 33.8 37.6 31.4C39.6 27.4 40.1 22.8 39.2 18.2C37.8 11.2 32 6 24 6Z"
		stroke="#0D9488"
		stroke-width="3"
		stroke-linecap="round"
		stroke-linejoin="round"
	/>
</svg>
